<svg width="61" height="20" viewBox="0 0 61 20" fill="none" xmlns="http://www.w3.org/2000/svg">
<path d="M17.5782 6.624H21.0222C21.7182 6.624 22.2622 6.82 22.6542 7.212C23.0542 7.604 23.2542 8.128 23.2542 8.784C23.2542 9.096 23.2102 9.36 23.1222 9.576C23.0342 9.792 22.9222 9.972 22.7862 10.116C22.6502 10.252 22.5022 10.356 22.3422 10.428C22.1822 10.492 22.0342 10.536 21.8982 10.56V10.632C22.0502 10.64 22.2182 10.68 22.4022 10.752C22.5942 10.824 22.7742 10.94 22.9422 11.1C23.1102 11.252 23.2502 11.452 23.3622 11.7C23.4822 11.94 23.5422 12.232 23.5422 12.576C23.5422 12.92 23.4862 13.24 23.3742 13.536C23.2702 13.832 23.1222 14.088 22.9302 14.304C22.7382 14.52 22.5102 14.692 22.2462 14.82C21.9822 14.94 21.6942 15 21.3822 15H17.5782V6.624ZM18.5862 14.112H21.0702C21.5022 14.112 21.8422 14.004 22.0902 13.788C22.3382 13.564 22.4622 13.24 22.4622 12.816V12.408C22.4622 11.984 22.3382 11.664 22.0902 11.448C21.8422 11.224 21.5022 11.112 21.0702 11.112H18.5862V14.112ZM18.5862 10.248H20.9022C21.3022 10.248 21.6142 10.148 21.8382 9.948C22.0622 9.748 22.1742 9.46 22.1742 9.084V8.676C22.1742 8.3 22.0622 8.012 21.8382 7.812C21.6142 7.612 21.3022 7.512 20.9022 7.512H18.5862V10.248ZM27.662 15.144C27.246 15.144 26.866 15.068 26.522 14.916C26.178 14.764 25.882 14.548 25.634 14.268C25.394 13.98 25.206 13.64 25.07 13.248C24.934 12.848 24.866 12.4 24.866 11.904C24.866 11.416 24.934 10.972 25.07 10.572C25.206 10.172 25.394 9.832 25.634 9.552C25.882 9.264 26.178 9.044 26.522 8.892C26.866 8.74 27.246 8.664 27.662 8.664C28.078 8.664 28.454 8.74 28.79 8.892C29.134 9.044 29.43 9.264 29.678 9.552C29.926 9.832 30.118 10.172 30.254 10.572C30.39 10.972 30.458 11.416 30.458 11.904C30.458 12.4 30.39 12.848 30.254 13.248C30.118 13.64 29.926 13.98 29.678 14.268C29.43 14.548 29.134 14.764 28.79 14.916C28.454 15.068 28.078 15.144 27.662 15.144ZM27.662 14.292C28.182 14.292 28.606 14.132 28.934 13.812C29.262 13.492 29.426 13.004 29.426 12.348V11.46C29.426 10.804 29.262 10.316 28.934 9.996C28.606 9.676 28.182 9.516 27.662 9.516C27.142 9.516 26.718 9.676 26.39 9.996C26.062 10.316 25.898 10.804 25.898 11.46V12.348C25.898 13.004 26.062 13.492 26.39 13.812C26.718 14.132 27.142 14.292 27.662 14.292ZM34.3768 15.144C33.9608 15.144 33.5808 15.068 33.2368 14.916C32.8928 14.764 32.5968 14.548 32.3488 14.268C32.1088 13.98 31.9208 13.64 31.7848 13.248C31.6488 12.848 31.5808 12.4 31.5808 11.904C31.5808 11.416 31.6488 10.972 31.7848 10.572C31.9208 10.172 32.1088 9.832 32.3488 9.552C32.5968 9.264 32.8928 9.044 33.2368 8.892C33.5808 8.74 33.9608 8.664 34.3768 8.664C34.7928 8.664 35.1688 8.74 35.5048 8.892C35.8488 9.044 36.1448 9.264 36.3928 9.552C36.6408 9.832 36.8328 10.172 36.9688 10.572C37.1048 10.972 37.1728 11.416 37.1728 11.904C37.1728 12.4 37.1048 12.848 36.9688 13.248C36.8328 13.64 36.6408 13.98 36.3928 14.268C36.1448 14.548 35.8488 14.764 35.5048 14.916C35.1688 15.068 34.7928 15.144 34.3768 15.144ZM34.3768 14.292C34.8968 14.292 35.3208 14.132 35.6488 13.812C35.9768 13.492 36.1408 13.004 36.1408 12.348V11.46C36.1408 10.804 35.9768 10.316 35.6488 9.996C35.3208 9.676 34.8968 9.516 34.3768 9.516C33.8568 9.516 33.4328 9.676 33.1048 9.996C32.7768 10.316 32.6128 10.804 32.6128 11.46V12.348C32.6128 13.004 32.7768 13.492 33.1048 13.812C33.4328 14.132 33.8568 14.292 34.3768 14.292ZM38.7517 6.12H39.7117V11.748H39.7597L40.7077 10.692L42.4597 8.808H43.6237L41.3317 11.256L43.8517 15H42.6877L40.6357 11.844L39.7117 12.792V15H38.7517V6.12Z" fill="#2BFEBA"/>
<path d="M10 1H50.5217V-1H10V1ZM50.5217 19H10V21H50.5217V19ZM10 19C5.02944 19 1 14.9706 1 10H-1C-1 16.0751 3.92487 21 10 21V19ZM59.5217 10C59.5217 14.9706 55.4923 19 50.5217 19V21C56.5969 21 61.5217 16.0751 61.5217 10H59.5217ZM50.5217 1C55.4923 1 59.5217 5.02944 59.5217 10H61.5217C61.5217 3.92487 56.5969 -1 50.5217 -1V1ZM10 -1C3.92487 -1 -1 3.92487 -1 10H1C1 5.02944 5.02944 1 10 1V-1Z" fill="#2BFEBA"/>
</svg>
