<svg width="19" height="20" viewBox="0 0 19 20" fill="none" xmlns="http://www.w3.org/2000/svg">
<path d="M9.34166 8.28844V10.0173C9.34166 11.2359 10.3296 12.2238 11.5483 12.2238C13.0869 12.2238 14.0716 13.8118 12.8226 14.7103C11.891 15.3804 10.7385 15.7657 9.5 15.7657C6.4125 15.7657 3.95833 13.3258 3.95833 10.2561C3.95833 7.18653 6.4125 4.74658 9.5 4.74658C10.6875 4.74658 11.7958 5.14013 12.7458 5.76979C12.9216 5.90087 13.17 5.86693 13.3042 5.6935L15.1958 3.24871C15.3286 3.07708 15.2948 2.8299 15.1208 2.70018C13.4583 1.51956 11.5583 0.889893 9.5 0.889893C4.275 0.889893 0 5.14012 0 10.3349C0 15.5296 4.275 19.7798 9.5 19.7798C14.725 19.7798 19 15.5296 19 10.3349C19 9.24812 18.119 8.36715 17.0323 8.36715H9.42037C9.3769 8.36715 9.34166 8.33191 9.34166 8.28844Z" fill="white"/>
</svg>
