<svg width="24" height="24" viewBox="0 0 24 24" fill="none" xmlns="http://www.w3.org/2000/svg">
<path d="M18.6047 12.2176C18.6686 12.2176 18.7323 12.2176 18.7962 12.2235V4.51343H0.00585938V17.8449C0.00676589 18.9018 0.863365 19.7582 1.92029 19.7593H12.5423C12.4467 19.321 12.3982 18.8737 12.3973 18.425C12.4012 14.9984 15.1781 12.2215 18.6047 12.2176ZM4.32783 9.84496H13.3199C13.544 9.84496 13.7259 10.0267 13.7259 10.2511C13.7259 10.4752 13.544 10.6571 13.3199 10.6571H4.32783C4.10348 10.6571 3.92174 10.4752 3.92174 10.2511C3.92174 10.0267 4.10348 9.84496 4.32783 9.84496ZM9.71126 14.428H4.32783C4.10348 14.428 3.92174 14.246 3.92174 14.0219C3.92174 13.7976 4.10348 13.6158 4.32783 13.6158H9.71126C9.93561 13.6158 10.1174 13.7976 10.1174 14.0219C10.1174 14.246 9.93561 14.428 9.71126 14.428Z" fill="#2BFEBA"/>
<path d="M18.6047 13.0298C15.6249 13.0298 13.2095 15.4453 13.2095 18.425C13.2095 21.4047 15.6249 23.8202 18.6047 23.8202C21.5844 23.8202 23.9999 21.4047 23.9999 18.425C23.9974 15.4464 21.5833 13.0323 18.6047 13.0298ZM21.9753 17.0558L18.1231 20.7396C18.0479 20.8108 17.9482 20.8502 17.8449 20.85C17.737 20.8491 17.6334 20.8078 17.5548 20.734L15.3675 18.541C15.2091 18.3824 15.2091 18.1252 15.3675 17.9668C15.5261 17.8082 15.7834 17.8082 15.942 17.9668L17.8505 19.8753L21.4183 16.47C21.4958 16.395 21.6001 16.354 21.7079 16.356C21.8158 16.3583 21.9182 16.4034 21.9928 16.4816C22.1444 16.6456 22.1367 16.9012 21.9753 17.0558Z" fill="#2BFEBA"/>
<path d="M18.7962 2.12928C18.7951 1.07235 17.9387 0.21575 16.8818 0.214844H14.3292V1.4968C14.3292 1.72114 14.1475 1.90289 13.9231 1.90289C13.6988 1.90289 13.517 1.72114 13.517 1.4968V0.214844H5.27919V1.4968C5.27919 1.72114 5.09744 1.90289 4.8731 1.90289C4.64875 1.90289 4.46701 1.72114 4.46701 1.4968V0.214844H1.91443C0.857506 0.21575 0.00113306 1.07235 0 2.12928V3.70719H18.7903V2.12928H18.7962Z" fill="#2BFEBA"/>
</svg>
