<svg width="22" height="24" viewBox="0 0 22 24" fill="none" xmlns="http://www.w3.org/2000/svg">
<path d="M17.3926 12.7862V4.51416C17.3923 3.19231 16.3207 2.12104 14.999 2.12059H13.0363V1.20625C13.0363 0.941763 12.8221 0.727539 12.5576 0.727539C12.2932 0.727539 12.0789 0.941763 12.0789 1.20625V2.12059H5.56836V1.20625C5.56836 0.941763 5.35413 0.727539 5.08964 0.727539C4.8253 0.727539 4.61093 0.941763 4.61093 1.20625V2.12059H2.6482C1.32651 2.12104 0.255237 3.19231 0.254639 4.51416V17.4825C0.255237 18.8042 1.32651 19.8755 2.6482 19.8761H11.5093C12.4304 22.2352 14.9006 23.6046 17.3894 23.1361C19.8783 22.6677 21.6815 20.4939 21.682 17.9612C21.6866 15.3905 19.834 13.2459 17.3926 12.7862ZM2.65314 3.07802H4.61587V3.99236C4.61587 4.2567 4.83009 4.47108 5.09458 4.47108C5.35892 4.47108 5.57329 4.2567 5.57329 3.99236V3.07802H12.0838V3.99236C12.0838 4.2567 12.298 4.47108 12.5625 4.47108C12.8268 4.47108 13.0412 4.2567 13.0412 3.99236V3.07802H15.0039C15.7961 3.08026 16.4377 3.72189 16.4401 4.51416V5.67265H1.217V4.51416C1.2176 3.72114 1.86027 3.07862 2.65314 3.07802ZM2.65314 18.9186C1.86087 18.9164 1.21925 18.2746 1.217 17.4825V6.62529H16.4351V12.6954H16.4208C14.8573 12.6978 13.3756 13.3935 12.3754 14.5954C11.375 15.7971 10.9597 17.3808 11.2411 18.9186H2.65314ZM16.4208 22.2696C14.0414 22.2696 12.1124 20.3407 12.1124 17.9612C12.1124 15.5817 14.0414 13.6528 16.4208 13.6528C18.8003 13.6528 20.7292 15.5817 20.7292 17.9612C20.7256 20.3392 18.7988 22.266 16.4208 22.2696Z" fill="#FAF3DD"/>
</svg>
