<svg width="24" height="22" viewBox="0 0 24 22" fill="none" xmlns="http://www.w3.org/2000/svg">
<path d="M23.2151 17.3862C23.7359 16.3077 23.9998 15.151 23.9998 13.9441C23.9998 9.63618 20.5169 6.10758 16.1556 5.9004C15.1728 2.42449 11.9442 0 8.25018 0C3.7012 0 0.000361231 3.61282 0.000361231 8.05355C0.000361231 9.26038 0.264262 10.4171 0.785125 11.4956L0.0140016 15.2814C-0.0841526 15.7634 0.348869 16.1893 0.839827 16.094L4.74345 15.3363C5.72133 15.7917 6.76156 16.0462 7.8451 16.0969C9.21138 20.9268 14.6989 23.3494 19.2567 21.2269C23.5319 22.0567 23.1985 21.9977 23.2967 21.9977C23.741 21.9977 24.0729 21.598 23.9862 21.172L23.2151 17.3862ZM5.16062 13.9991C5.01996 13.9285 4.85908 13.9065 4.70421 13.9366L1.59928 14.5393L2.21094 11.5365C2.24202 11.3839 2.2197 11.2254 2.14747 11.0868C1.6559 10.1427 1.40658 9.12218 1.40658 8.05355C1.40658 4.37409 4.47659 1.38061 8.25018 1.38061C11.1993 1.38061 13.7963 3.2633 14.7038 5.95581C10.4052 6.49539 7.16767 10.3034 7.58302 14.6946C6.73578 14.6147 5.92411 14.3823 5.16062 13.9991ZM21.7893 17.427L22.401 20.4299L19.296 19.8271C19.1411 19.7971 18.9803 19.8191 18.8396 19.8897C17.878 20.3723 16.8385 20.6171 15.7501 20.6171C12.0023 20.6171 8.95334 17.6236 8.95334 13.9441C8.95334 10.2647 12.0023 7.2712 15.7501 7.2712C19.5237 7.2712 22.5937 10.2647 22.5937 13.9441C22.5937 15.0128 22.3444 16.0333 21.8528 16.9774C21.7805 17.116 21.7582 17.2744 21.7893 17.427Z" fill="#FBF7EC"/>
</svg>
