<svg width="24" height="24" viewBox="0 0 24 24" fill="none" xmlns="http://www.w3.org/2000/svg">
<g clip-path="url(#clip0)">
<path d="M15.6187 5.39224C14.2638 2.6257 11.4295 0.796631 8.25041 0.796631C3.70144 0.796631 0.000605371 4.47647 0.000605371 8.99956C0.000605371 10.2288 0.264505 11.407 0.785368 12.5055L0.0142457 16.3615C-0.0839083 16.8524 0.349113 17.2863 0.84007 17.1891L4.74368 16.4174C5.26928 16.6667 5.81302 16.8563 6.37171 16.9869C5.11938 11.0555 9.61533 5.48777 15.6187 5.39224Z" fill="#2BFEBA"/>
<path d="M23.2151 18.5054C23.3498 18.2213 23.467 17.9318 23.5672 17.6376H23.5414C25.2968 12.4853 21.6053 7.07027 16.1557 6.8066C16.1556 6.80632 16.1555 6.80604 16.1554 6.80576C11.4663 6.58967 7.57056 10.3441 7.57056 14.9995C7.57056 19.5188 11.2436 23.1957 15.7614 23.2023C16.9869 23.2007 18.1614 22.9369 19.2567 22.4173C23.532 23.2625 23.1985 23.2024 23.2968 23.2024C23.7411 23.2024 24.073 22.7953 23.9862 22.3615L23.2151 18.5054Z" fill="#2BFEBA"/>
</g>
<defs>
<clipPath id="clip0">
<rect width="24" height="24" fill="white"/>
</clipPath>
</defs>
</svg>
